<svg width="142" height="142" viewBox="0 0 142 142" fill="none" xmlns="http://www.w3.org/2000/svg">
<g filter="url(#filter0_d)">
<circle cx="71" cy="67" r="61" stroke="black" stroke-width="12"/>
</g>
<g filter="url(#filter1_d)">
<path d="M65.6719 26.1875C67.5156 24.625 69.5156 23.8438 71.6719 23.8438C73.8281 23.8438 75.6094 24.5156 77.0156 25.8594C78.4219 27.1719 79.125 29.0312 79.125 31.4375C79.125 33.8438 78.2188 35.875 76.4062 37.5312C74.5938 39.1562 72.5156 39.9688 70.1719 39.9688C67.8594 39.9688 66.0312 39.25 64.6875 37.8125C63.375 36.375 62.7188 34.5312 62.7188 32.2812C62.7188 30.0312 63.7031 28 65.6719 26.1875ZM64.4062 60.4531C64.4062 58.0781 63.5781 56.6719 61.9219 56.2344C60.8594 55.8906 59.3594 55.6406 57.4219 55.4844C57.2031 54.5469 57.0938 53.8438 57.0938 53.375C57.0938 52.875 57.1094 52.4844 57.1406 52.2031C61.6406 49.6719 67.2812 48.4062 74.0625 48.4062C75.1562 48.4062 75.9688 48.4219 76.5 48.4531C77.375 49.8281 77.9844 52.5156 78.3281 56.5156C78.5781 58.3281 78.7031 61.0625 78.7031 64.7188C78.7031 68.375 78.5781 79.5 78.3281 98.0938C74.8594 98.6875 71.9688 98.9844 69.6562 98.9844C67.375 98.9844 65.4375 98.6875 63.8438 98.0938C64.4062 90.5625 64.6875 83.8281 64.6875 77.8906C64.6875 71.9219 64.5938 66.1094 64.4062 60.4531Z" fill="black"/>
</g>
<defs>
<filter id="filter0_d" x="0" y="0" width="142" height="142" filterUnits="userSpaceOnUse" color-interpolation-filters="sRGB">
<feFlood flood-opacity="0" result="BackgroundImageFix"/>
<feColorMatrix in="SourceAlpha" type="matrix" values="0 0 0 0 0 0 0 0 0 0 0 0 0 0 0 0 0 0 127 0"/>
<feOffset dy="4"/>
<feGaussianBlur stdDeviation="2"/>
<feColorMatrix type="matrix" values="0 0 0 0 0 0 0 0 0 0 0 0 0 0 0 0 0 0 0.25 0"/>
<feBlend mode="normal" in2="BackgroundImageFix" result="effect1_dropShadow"/>
<feBlend mode="normal" in="SourceGraphic" in2="effect1_dropShadow" result="shape"/>
</filter>
<filter id="filter1_d" x="53.0938" y="23.8438" width="30.0312" height="83.1406" filterUnits="userSpaceOnUse" color-interpolation-filters="sRGB">
<feFlood flood-opacity="0" result="BackgroundImageFix"/>
<feColorMatrix in="SourceAlpha" type="matrix" values="0 0 0 0 0 0 0 0 0 0 0 0 0 0 0 0 0 0 127 0"/>
<feOffset dy="4"/>
<feGaussianBlur stdDeviation="2"/>
<feColorMatrix type="matrix" values="0 0 0 0 0 0 0 0 0 0 0 0 0 0 0 0 0 0 0.25 0"/>
<feBlend mode="normal" in2="BackgroundImageFix" result="effect1_dropShadow"/>
<feBlend mode="normal" in="SourceGraphic" in2="effect1_dropShadow" result="shape"/>
</filter>
</defs>
</svg>
